<?xml version="1.0" encoding="UTF-8"?>
<svg width="40px" height="40px" viewBox="0 0 40 40" version="1.1" xmlns="http://www.w3.org/2000/svg" xmlns:xlink="http://www.w3.org/1999/xlink">
    <title>名片1</title>
    <g id="页面-1"  stroke-width="1"  fill-rule="evenodd">
        <g id="企业详情2备份-2" transform="translate(-96.000000, -534.000000)" fill-rule="nonzero">
            <g id="编组-26" transform="translate(0.000000, 442.000000)">
                <g id="编组-6" transform="translate(32.000000, 68.000000)">
                    <g id="名片1" transform="translate(64.000000, 24.000000)">
                        <rect id="矩形"  opacity="0" x="0" y="0" width="40" height="40"></rect>
                        <path d="M21.1875846,22.6250928 L6.93753002,22.6250928 C6.28111835,22.6250928 5.74998908,23.1574011 5.74998908,23.8124154 C5.74998908,24.4687397 6.28107468,25.0001747 6.93753002,25.0001747 L21.1875409,25.0001747 C21.8438653,25.0001747 22.3750819,24.4687397 22.3750819,23.8124154 C22.3750819,23.1574011 21.8436906,22.6250928 21.1875846,22.6250928 Z M21.1875846,27.3750382 L6.93753002,27.3750382 C6.28111835,27.3750382 5.74998908,27.9062548 5.74998908,28.5625791 C5.74998908,29.2189035 6.28107468,29.7499017 6.93753002,29.7499017 L21.1875409,29.7499017 C21.8438653,29.7499017 22.3750819,29.2189035 22.3750819,28.5625791 C22.3750819,27.9062548 21.8436906,27.3750382 21.1875846,27.3750382 Z M34.2500546,6 L5.75003275,6 C3.12683145,6 1,8.12683145 1,10.7500328 L1,29.7498581 C1,32.3731904 3.12683145,34.5000218 5.75003275,34.5000218 L34.2500546,34.5000218 C36.8731685,34.5000218 39,32.3731904 39,29.7498581 L39,10.7500764 C39,8.12683145 36.8731685,6 34.2500546,6 Z M36.6251365,29.7499017 C36.6251365,31.0616771 35.5616116,32.1249836 34.2500546,32.1249836 L5.75003275,32.1249836 C4.43838843,32.1249836 3.37495087,31.0616771 3.37495087,29.7499017 L3.37495087,10.7500764 C3.37495087,9.43851944 4.43834477,8.37499454 5.75003275,8.37499454 L34.2500546,8.37499454 C35.5616116,8.37499454 36.6251365,9.43838843 36.6251365,10.7500764 L36.6251365,29.7499017 Z M31.8749727,10.7500764 L27.1250273,10.7500764 C25.8134703,10.7500764 24.7499454,11.8134703 24.7499454,13.1250273 L24.7499454,17.87506 C24.7499454,19.186617 25.8134703,20.2500109 27.1250273,20.2500109 L31.8749727,20.2500109 C33.186748,20.2500109 34.2500546,19.1867044 34.2500546,17.87506 L34.2500546,13.1250273 C34.2500546,11.8134703 33.186748,10.7500764 31.8749727,10.7500764 Z M31.8749727,16.6875191 C31.8749727,17.3438434 31.3439744,17.87506 30.6876501,17.87506 L28.3125682,17.87506 C27.6562439,17.87506 27.1250273,17.3438434 27.1250273,16.6875191 L27.1250273,14.3124372 C27.1250273,13.6572046 27.6562439,13.1248963 28.3125682,13.1248963 L30.6876501,13.1248963 C31.3439744,13.1248963 31.8749727,13.6572046 31.8749727,14.3124372 L31.8749727,16.6875191 Z" id="形状" ></path>
                    </g>
                </g>
            </g>
        </g>
    </g>
</svg>