<?xml version="1.0" encoding="UTF-8"?>
<svg width="40px" height="40px" viewBox="0 0 40 40" version="1.1" xmlns="http://www.w3.org/2000/svg" xmlns:xlink="http://www.w3.org/1999/xlink">
    <title>企业受益股东</title>
    <g id="页面-1"  stroke-width="1"  fill-rule="evenodd">
        <g id="企业详情2备份-2" transform="translate(-269.000000, -534.000000)" fill-rule="nonzero">
            <g id="编组-26" transform="translate(0.000000, 442.000000)">
                <g id="编组-22" transform="translate(205.000000, 68.000000)">
                    <g id="企业受益股东" transform="translate(64.000000, 24.000000)">
                        <rect id="矩形"  opacity="0" x="0" y="0" width="40" height="40"></rect>
                        <path d="M30.7355127,12.6115128 C30.7355127,6.75150221 25.9647169,2 20.0783967,2 C14.1920765,2 9.42128069,6.75150217 9.42128073,12.6115128 C9.42121637,16.127551 11.1667478,19.4142238 14.0798225,21.3831121 C7.61644653,23.6176686 3,29.3461316 3,36.0989124 C3,36.8829366 3.63844475,37.5196274 4.42773083,37.5196274 C5.21526292,37.5196274 5.85370767,36.8829366 5.85370767,36.0989124 L5.85546161,35.8866822 C5.96596166,29.7214809 10.8893528,24.5735817 17.4176256,23.4510416 L14.9971483,32.494506 C14.7989499,33.231173 15.0304738,34.0134432 15.5934978,34.5238482 L18.9558565,37.5669845 C19.5928606,38.1443385 20.5639328,38.1443385 21.2009369,37.5669845 L24.5615416,34.5238482 C25.1263196,34.0151972 25.3560896,33.229419 25.1596451,32.494506 L22.7356598,23.4422717 C29.3621549,24.5613039 34.3469349,29.8232111 34.346935,36.0989124 L34.3486889,36.121714 C34.3630434,36.89868 34.9975679,37.520717 35.7746658,37.5196274 C36.5639518,37.5196274 37.2023966,36.8829366 37.2023966,36.0989124 C37.2023966,29.3356077 32.5719183,23.6001289 26.0927566,21.3725882 C28.9967453,19.4022134 30.735632,16.1208614 30.7355127,12.6115128 L30.7355127,12.6115128 Z M12.2749884,12.6115128 C12.2749884,8.31955055 15.7688947,4.84142987 20.0783967,4.84142987 C24.3878987,4.84142987 27.883559,8.31955051 27.883559,12.6115128 C27.883559,16.9017211 24.3878987,20.3815957 20.0783967,20.3815957 C15.7688947,20.3815957 12.2732344,16.9017211 12.2732344,12.6115128 L12.2749884,12.6115128 Z M20.1397856,23.9158434 L22.5251835,32.8189903 L20.0783967,35.0324993 L17.6316098,32.8189903 L20.0170078,23.9158434 L20.1397856,23.9158434 Z" id="形状" ></path>
                    </g>
                </g>
            </g>
        </g>
    </g>
</svg>